<svg version="1.1" id="Layer_1" xmlns:x="ns_extend;" xmlns:i="ns_ai;" xmlns:graph="ns_graphs;" xmlns="http://www.w3.org/2000/svg" xmlns:xlink="http://www.w3.org/1999/xlink" x="0px" y="0px" viewBox="0 0 233.6 55" style="enable-background:new 0 0 233.6 55;" xml:space="preserve">
 <style type="text/css">
  .st0{fill-rule:evenodd;clip-rule:evenodd;fill:#FFFFFF;}
 </style>
 <metadata>
  <sfw xmlns="ns_sfw;">
   <slices>
   </slices>
   <sliceSourceBounds bottomLeftOrigin="true" height="55" width="233.6" x="-54.9" y="21.9">
   </sliceSourceBounds>
  </sfw>
 </metadata>
 <g>
  <g id="svg_1">
   <g id="truist-logo">
    <g id="global_x2F_truist-logo--purple">
     <path id="tru_lg_hrz_rgb_pos" class="st0" d="M229,50.4V30.2h-14v10h-5.3V14.8h5.3v10h14V4.6h-45.8v20.2h14v-10h5.3v25.4h-5.3
					v-10h-14v20.2H229z M178.6,50V5c0-3.1,1.9-5,5-5h44.9c3.1,0,5,1.9,5,5V50c0,3.1-1.9,5-5,5h-44.9C180.5,55,178.6,53.1,178.6,50z
					 M149.3,43.2V16.8h-10v-5h25.4v5h-10v26.4C154.7,43.2,149.3,43.2,149.3,43.2z M123.1,29.7c-4.2-1.4-8.8-3.2-8.8-9.1
					c0-5.7,4.3-9.5,10.8-9.5c3,0,5.4,0.7,7.6,1.7v5.7c-2.5-1.5-4.9-2.4-7.6-2.4c-3.2,0-5.3,1.5-5.3,4c0,2.9,2.6,3.7,6.8,5.2
					c4.2,1.4,8.8,3.2,8.8,9.1c0,5.8-4.4,9.6-11,9.6c-3.6,0-6.6-0.9-9.1-2.2v-5.8c2.9,1.8,5.7,3.1,9.1,3.1c3.4,0,5.5-1.6,5.5-4
					C130,32,127.3,31.1,123.1,29.7z M99.7,43.2h5.5V11.8h-5.5V43.2z M64.1,31V11.8h5.5V31c0,4.9,2.7,7.9,7.1,7.9
					c4.4,0,7.1-3,7.1-7.9V11.8h5.5V31c0,7.6-5.1,12.8-12.6,12.8S64.1,38.7,64.1,31z M44.7,27.1c3.1,0,5.3-2.2,5.3-5.2
					c0-3-2.2-5.2-5.3-5.2h-6.8v10.4C37.9,27.1,44.7,27.1,44.7,27.1z M45.7,36.9c-1.5-3.1-2.3-4.8-5.9-4.8h-1.9v11.2h-5.5V11.8h12.3
					c6.4,0,10.9,4.1,10.9,10c0,4.8-2.9,8.1-7.3,9.2c2,2.1,2.7,4.8,4,6.1c0.8,0.8,1.6,1.2,2.8,1.2c0.5,0,0.9,0,1.3-0.1v5
					c-0.7,0.1-1.3,0.2-2,0.2C49,43.4,47.4,40.4,45.7,36.9z M10,43.2V16.8H0v-5h25.4v5h-10v26.4H10L10,43.2z">
     </path>
    </g>
   </g>
  </g>
 </g>
</svg>